<svg xmlns="http://www.w3.org/2000/svg" version="1.1" xmlns:xlink="http://www.w3.org/1999/xlink" xmlns:svgjs="http://svgjs.dev/svgjs" width="1280" height="720" preserveAspectRatio="none" viewBox="0 0 1280 720"><g mask="url(&quot;#SvgjsMask7684&quot;)" fill="none"><rect width="1280" height="720" x="0" y="0" fill="rgba(255, 254, 179, 1)"></rect><rect width="216" height="216" clip-path="url(&quot;#SvgjsClipPath7685&quot;)" x="412.34" y="491.26" fill="url(&quot;#SvgjsPattern7686&quot;)" transform="rotate(135.43, 520.34, 599.26)"></rect><rect width="408" height="408" clip-path="url(&quot;#SvgjsClipPath7687&quot;)" x="152.62" y="-64.41" fill="url(&quot;#SvgjsPattern7688&quot;)" transform="rotate(26.65, 356.62, 139.59)"></rect><circle r="64.8548564671336" cx="1257.64" cy="261.88" stroke="rgba(111, 203, 159, 1)" stroke-width="2.31" stroke-dasharray="3, 2"></circle><path d="M1144.41 60.74L1157.2 61.3 1159.46 73.9 1172.26 74.47 1174.52 87.07 1187.31 87.64 1189.57 100.24M1139.14 66.76L1151.94 67.32 1154.2 79.93 1166.99 80.49 1169.25 93.09 1182.04 93.66 1184.3 106.26M1133.88 72.78L1146.67 73.34 1148.93 85.95 1161.72 86.51 1163.98 99.12 1176.78 99.68 1179.03 112.28" stroke="rgba(111, 203, 159, 1)" stroke-width="2.93" stroke-dasharray="3, 3"></path><circle r="60" cx="715.06" cy="56.51" stroke="rgba(255, 192, 0, 1)" stroke-width="1" stroke-dasharray="4, 4"></circle><path d="M886.5400000000001 610.51 L870.84 489.69L953.4845181197479 475.30548188025216z" fill="rgba(251, 46, 1, 1)"></path><path d="M203.99 789.5600000000001 L193.4 860.8700000000001L165.37124130792517 791.8912413079254z" fill="rgba(111, 203, 159, 1)"></path><rect width="468" height="468" clip-path="url(&quot;#SvgjsClipPath7689&quot;)" x="768.62" y="-50.73" fill="url(&quot;#SvgjsPattern7690&quot;)" transform="rotate(177.1, 1002.62, 183.27)"></rect></g><defs><mask id="SvgjsMask7684"><rect width="1280" height="720" fill="#ffffff"></rect></mask><pattern x="0" y="0" width="216" height="6" patternUnits="userSpaceOnUse" id="SvgjsPattern7686"><rect width="216" height="3" x="0" y="0" fill="rgba(255, 192, 0, 1)"></rect><rect width="216" height="3" x="0" y="3" fill="rgba(0, 0, 0, 0)"></rect></pattern><clipPath id="SvgjsClipPath7685"><circle r="54" cx="520.34" cy="599.26"></circle></clipPath><pattern x="0" y="0" width="6" height="6" patternUnits="userSpaceOnUse" id="SvgjsPattern7688"><path d="M0 6L3 0L6 6" stroke="rgba(251, 46, 1, 1)" fill="none"></path></pattern><clipPath id="SvgjsClipPath7687"><circle r="102" cx="356.62" cy="139.59"></circle></clipPath><pattern x="0" y="0" width="6" height="6" patternUnits="userSpaceOnUse" id="SvgjsPattern7690"><path d="M3 1L3 5M1 3L5 3" stroke="rgba(111, 203, 159, 1)" fill="none" stroke-width="1"></path></pattern><clipPath id="SvgjsClipPath7689"><circle r="117" cx="1002.62" cy="183.27"></circle></clipPath></defs></svg>